<?xml version="1.0" encoding="UTF-8" standalone="no"?>
<!-- Generator: Adobe Illustrator 18.1.1, SVG Export Plug-In . SVG Version: 6.00 Build 0)  -->

<svg
   xmlns:dc="http://purl.org/dc/elements/1.1/"
   xmlns:cc="http://creativecommons.org/ns#"
   xmlns:rdf="http://www.w3.org/1999/02/22-rdf-syntax-ns#"
   xmlns:svg="http://www.w3.org/2000/svg"
   xmlns="http://www.w3.org/2000/svg"
   xmlns:sodipodi="http://sodipodi.sourceforge.net/DTD/sodipodi-0.dtd"
   xmlns:inkscape="http://www.inkscape.org/namespaces/inkscape"
   version="1.1"
   id="Capa_1"
   x="0px"
   y="0px"
   viewBox="0 0 26.769 26.769"
   style="enable-background:new 0 0 26.769 26.769;"
   xml:space="preserve"
   width="512px"
   height="512px"
   sodipodi:docname="services_def.svg"
   inkscape:version="0.92.0 r15299"><metadata
   id="metadata75"><rdf:RDF><cc:Work
       rdf:about=""><dc:format>image/svg+xml</dc:format><dc:type
         rdf:resource="http://purl.org/dc/dcmitype/StillImage" /><dc:title></dc:title></cc:Work></rdf:RDF></metadata><defs
   id="defs73" /><sodipodi:namedview
   pagecolor="#ffffff"
   bordercolor="#666666"
   borderopacity="1"
   objecttolerance="10"
   gridtolerance="10"
   guidetolerance="10"
   inkscape:pageopacity="0"
   inkscape:pageshadow="2"
   inkscape:window-width="1304"
   inkscape:window-height="745"
   id="namedview71"
   showgrid="false"
   inkscape:zoom="0.4609375"
   inkscape:cx="-111.72881"
   inkscape:cy="256"
   inkscape:window-x="54"
   inkscape:window-y="-8"
   inkscape:window-maximized="1"
   inkscape:current-layer="Capa_1" />
<rect
   style="opacity:1;fill:#a0de4f;fill-opacity:1;stroke:none;stroke-width:0.10024042;stroke-opacity:1"
   id="rect4507"
   width="44.440723"
   height="44.440723"
   x="-8.8358622"
   y="-8.8358622"
   inkscape:export-xdpi="1383.9"
   inkscape:export-ydpi="1383.9" /><g
   id="g38">
	<path
   d="M17.601,12.297c0.556-0.371,1.212-0.529,1.854-0.457l7.314-7.316l-4.096-4.096l-7.315,7.316   c0.074,0.65-0.09,1.314-0.476,1.877L17.601,12.297z"
   fill="#4caf50"
   id="path2"
   style="fill:#ffffff;fill-opacity:1" />
	<polygon
   points="4.842,21.207 4.577,20.942 3.19,22.063 0.854,25.744 1.452,26.342 5.136,24.006 6.256,22.623 5.99,22.354    10.642,17.701 9.486,16.561  "
   fill="#4caf50"
   id="polygon4"
   style="fill:#ffffff;fill-opacity:1" />
	<path
   d="M11.204,8.307c0.537-1.92,0.05-4.066-1.457-5.576C8.245,1.235,6.124,0.744,4.215,1.262l3.233,3.232L6.6,7.66L3.43,8.508   l-3.232-3.23c-0.516,1.908-0.026,4.029,1.473,5.529c1.571,1.572,3.835,2.033,5.815,1.389l0.018,0.018l13.299,13.299   c0.526,0.525,1.216,0.791,1.905,0.791c0.69,0,1.378-0.266,1.906-0.791c1.051-1.049,1.051-2.754,0-3.811L11.204,8.307z    M22.94,25.061c-0.566,0-1.025-0.461-1.025-1.029c0-0.57,0.459-1.029,1.025-1.029c0.57,0,1.031,0.459,1.031,1.029   C23.972,24.6,23.511,25.061,22.94,25.061z"
   fill="#4caf50"
   id="path6"
   style="fill:#ffffff;fill-opacity:1" />
	<g
   id="g8">
	</g>
	<g
   id="g10">
	</g>
	<g
   id="g12">
	</g>
	<g
   id="g14">
	</g>
	<g
   id="g16">
	</g>
	<g
   id="g18">
	</g>
	<g
   id="g20">
	</g>
	<g
   id="g22">
	</g>
	<g
   id="g24">
	</g>
	<g
   id="g26">
	</g>
	<g
   id="g28">
	</g>
	<g
   id="g30">
	</g>
	<g
   id="g32">
	</g>
	<g
   id="g34">
	</g>
	<g
   id="g36">
	</g>
</g>
<g
   id="g40">
</g>
<g
   id="g42">
</g>
<g
   id="g44">
</g>
<g
   id="g46">
</g>
<g
   id="g48">
</g>
<g
   id="g50">
</g>
<g
   id="g52">
</g>
<g
   id="g54">
</g>
<g
   id="g56">
</g>
<g
   id="g58">
</g>
<g
   id="g60">
</g>
<g
   id="g62">
</g>
<g
   id="g64">
</g>
<g
   id="g66">
</g>
<g
   id="g68">
</g>
</svg>